<svg id="visual" viewBox="0 0 1920 1080" width="1920" height="1080" xmlns="http://www.w3.org/2000/svg" xmlns:xlink="http://www.w3.org/1999/xlink" version="1.1"><path d="M0 368L175 455L349 347L524 401L698 271L873 476L1047 390L1222 487L1396 422L1571 195L1745 422L1920 433L1920 0L1745 0L1571 0L1396 0L1222 0L1047 0L873 0L698 0L524 0L349 0L175 0L0 0Z" fill="#2c4486"></path><path d="M0 681L175 735L349 671L524 725L698 779L873 822L1047 757L1222 714L1396 725L1571 660L1745 746L1920 638L1920 431L1745 420L1571 193L1396 420L1222 485L1047 388L873 474L698 269L524 399L349 345L175 453L0 366Z" fill="#223267"></path><path d="M0 854L175 908L349 865L524 951L698 941L873 930L1047 919L1222 865L1396 930L1571 843L1745 854L1920 833L1920 636L1745 744L1571 658L1396 723L1222 712L1047 755L873 820L698 777L524 723L349 669L175 733L0 679Z" fill="#16204a"></path><path d="M0 1081L175 1081L349 1081L524 1081L698 1081L873 1081L1047 1081L1222 1081L1396 1081L1571 1081L1745 1081L1920 1081L1920 831L1745 852L1571 841L1396 928L1222 863L1047 917L873 928L698 939L524 949L349 863L175 906L0 852Z" fill="#0b0f2f"></path></svg>