<?xml version="1.0" encoding="UTF-8" standalone="no"?>

<svg
   width="100px"
   height="100px"
   viewBox="0 0 25 25"
   version="1.1"
   opacity="1"
   id="svg388"
   sodipodi:docname="re_home_logo.svg"
   xmlns:sodipodi="http://sodipodi.sourceforge.net/DTD/sodipodi-0.dtd"
   xmlns="http://www.w3.org/2000/svg"
   xmlns:svg="http://www.w3.org/2000/svg">
  <sodipodi:namedview
     id="namedview390"
     pagecolor="#878787"
     bordercolor="#000000"
     borderopacity="0.25"
     showgrid="false"/>
  <defs
     id="defs385">
    <linearGradient
       id="linearGradient16166">
      <stop
         style="stop-color:#ffffff;stop-opacity:1;"
         offset="0"
         id="stop16164" />
    </linearGradient>
  </defs>
  <g
     id="layer1"
     transform="translate(-93.840503,-93.491629)">
    <path
       id="path821"
       style="fill:#d9d9d9;fill-opacity:1;stroke:#314361;stroke-width:0.0000000586511;stroke-dasharray:none;stroke-opacity:1"
       d="m 106.7255,93.49258 c -0.17897,0.006 -0.49971,0.08152 -0.66,0.08441 v 5.19e-4 c -1.02613,0.02063 -2.01964,0.174654 -2.96557,0.445974 -4.129893,1.184594 -7.351482,4.604043 -8.41311,8.907077 -0.07042,-0.15774 -0.223447,-0.26676 -0.402347,-0.26676 -0.245958,0 -0.443969,0.2058 -0.443969,0.46142 v 2.83445 c 0,0.25562 0.198011,0.46142 0.443969,0.46142 0.01896,0 0.03718,-0.001 0.0555,-0.004 0.641207,2.44599 13.834247,6.24503 15.002767,8.10064 2.17529,3.45429 -7.127,4.03651 -2.8625,3.96894 6.43599,-0.10198 11.61074,-5.45904 11.79688,-12.08296 0.0379,0.0109 0.0781,0.0169 0.11942,0.0169 0.24595,0 0.44396,-0.2058 0.44396,-0.46142 v -2.83445 c 0,-0.25562 -0.19801,-0.46142 -0.44396,-0.46142 -0.24596,0 -0.44397,0.2058 -0.44397,0.46142 -0.37957,-1.65091 -1.07244,-3.172715 -2.01173,-4.49267 -1.13325,-1.592521 -4.20895,-2.310263 -6.51981,-2.976584 -1.94885,-0.561942 -3.35388,-1.087431 -2.59147,-2.069188 0.0596,-0.07673 0.004,-0.09796 -0.10406,-0.09427 z m -4.91536,6.334764 c 2.89362,2.560076 5.88269,2.623886 8.97451,0 1.74849,0 2.99828,2.464326 2.99828,4.281536 0,1.81722 -1.24979,2.27878 -2.99828,2.27878 h -8.97451 c -1.74847,0 -3.208863,-0.58927 -3.208863,-2.4065 0,-1.81721 1.460393,-4.153816 3.208863,-4.153816 z m -0.005,2.339546 a 1.6847029,1.6221853 0 0 0 -1.65199,1.64949 1.6847029,1.6221853 0 0 0 1.71046,1.59437 1.6847029,1.6221853 0 0 0 1.65894,-1.64381 l -4.9e-4,-0.0129 a 1.6847029,1.6221853 0 0 0 -1.71692,-1.58717 z m 8.91902,0 a 1.6847029,1.6221853 0 0 0 -1.6515,1.64949 1.6847029,1.6221853 0 0 0 1.70997,1.59437 1.6847029,1.6221853 0 0 0 1.65894,-1.64381 l -5e-4,-0.0129 a 1.6847029,1.6221853 0 0 0 -1.71691,-1.58717 z" />
  </g>
</svg>
