<svg id="visual" viewBox="0 0 1920 1080" width="1920" height="1080" xmlns="http://www.w3.org/2000/svg" xmlns:xlink="http://www.w3.org/1999/xlink" version="1.1"><path d="M0 293L175 303L349 174L524 239L698 249L873 239L1047 271L1222 293L1396 293L1571 206L1745 228L1920 163L1920 0L1745 0L1571 0L1396 0L1222 0L1047 0L873 0L698 0L524 0L349 0L175 0L0 0Z" fill="#161d3a"></path><path d="M0 681L175 584L349 573L524 735L698 681L873 725L1047 627L1222 703L1396 822L1571 746L1745 822L1920 606L1920 161L1745 226L1571 204L1396 291L1222 291L1047 269L873 237L698 247L524 237L349 172L175 301L0 291Z" fill="#0f162e"></path><path d="M0 1081L175 1081L349 1081L524 1081L698 1081L873 1081L1047 1081L1222 1081L1396 1081L1571 1081L1745 1081L1920 1081L1920 604L1745 820L1571 744L1396 820L1222 701L1047 625L873 723L698 679L524 733L349 571L175 582L0 679Z" fill="#090e22"></path></svg>